<svg width="24" height="24" viewBox="0 0 24 24" fill="none" xmlns="http://www.w3.org/2000/svg">
<path d="M21.3321 19.0364C21.2065 19.5994 20.8951 20.1038 20.4481 20.4684C19.9597 20.9637 19.3778 21.3571 18.7361 21.6256C18.0944 21.8941 17.4057 22.0323 16.7101 22.0324H16.3851C14.9251 21.9531 13.4956 21.5836 12.1801 20.9454H12.1701C11.8651 20.8034 11.5501 20.6614 11.2451 20.4884C9.70952 19.6274 8.30105 18.5572 7.06011 17.3084C5.44967 15.7958 4.12811 14.0025 3.16011 12.0164C2.64566 10.928 2.30228 9.76661 2.14211 8.57341C1.90657 7.32441 2.04826 6.03357 2.54911 4.86541C2.8653 4.33839 3.25149 3.85667 3.69711 3.43341C3.89762 3.20665 4.14277 3.02372 4.41722 2.89605C4.69166 2.76837 4.98951 2.69871 5.29211 2.69141C5.62121 2.72778 5.93981 2.82916 6.22941 2.98966C6.51901 3.15017 6.77384 3.36661 6.97911 3.62641C7.43611 4.12341 7.99411 4.64141 8.45211 5.11941L9.08211 5.73941C9.45211 6.06741 9.68111 6.52541 9.72211 7.01941C9.72211 7.47241 9.55511 7.90941 9.25411 8.24841C9.05917 8.4855 8.85223 8.71246 8.63411 8.92841L8.43111 9.14141C8.31311 9.25141 8.22311 9.38741 8.16711 9.53841C8.11711 9.68707 8.09711 9.83941 8.10711 9.99541C8.26811 10.4264 8.52111 10.8184 8.84711 11.1434C9.35611 11.8334 9.86411 12.4334 10.3821 13.0834C11.3191 14.1711 12.431 15.0948 13.6721 15.8164C13.7991 15.9094 13.9451 15.9714 14.1001 15.9984C14.2341 16.0084 14.3701 15.9884 14.4961 15.9384C14.8511 15.7294 15.1661 15.4614 15.4301 15.1454C15.7851 14.7106 16.2948 14.4304 16.8521 14.3634C17.3884 14.3708 17.9 14.5901 18.2751 14.9734C18.4781 15.1454 18.7011 15.3794 18.9151 15.6034L19.2191 15.9174L19.5341 16.2224L20.0731 16.7704C20.3944 17.0557 20.6958 17.3607 20.9771 17.6854C21.2591 18.0754 21.3861 18.5584 21.3321 19.0364ZM17.6861 12.0774C17.4847 12.0753 17.292 11.9944 17.1496 11.8519C17.0071 11.7095 16.9262 11.5169 16.9241 11.3154C16.9252 10.7402 16.8126 10.1704 16.593 9.63877C16.3734 9.10713 16.0509 8.62409 15.6442 8.21734C15.2374 7.8106 14.7544 7.48816 14.2227 7.26851C13.6911 7.04887 13.1213 6.93635 12.5461 6.93741C12.344 6.93741 12.1502 6.85712 12.0073 6.71422C11.8644 6.57132 11.7841 6.3775 11.7841 6.17541C11.7841 5.97331 11.8644 5.77949 12.0073 5.63659C12.1502 5.49369 12.344 5.41341 12.5461 5.41341C13.3215 5.41222 14.0895 5.56407 14.8061 5.86026C15.5227 6.15644 16.1738 6.59113 16.7221 7.13942C17.2704 7.68771 17.7051 8.33881 18.0013 9.05541C18.2974 9.77201 18.4493 10.54 18.4481 11.3154C18.4484 11.4155 18.4288 11.5148 18.3906 11.6073C18.3524 11.6999 18.2963 11.784 18.2255 11.8548C18.1547 11.9256 18.0706 11.9817 17.978 12.0199C17.8855 12.0581 17.7862 12.0777 17.6861 12.0774Z" fill="black"/>
<path d="M21.2107 11.7203C21.0094 11.7182 20.817 11.6374 20.6746 11.4951C20.5321 11.3529 20.4511 11.1605 20.4487 10.9592C20.4503 9.97915 20.2586 9.00836 19.8846 8.10243C19.5106 7.1965 18.9616 6.3732 18.2691 5.67966C17.5766 4.98611 16.7541 4.43593 15.8487 4.06059C14.9433 3.68525 13.9728 3.49212 12.9927 3.49225C12.8904 3.49596 12.7884 3.47901 12.6928 3.44241C12.5971 3.40581 12.5099 3.35031 12.4362 3.27924C12.3625 3.20816 12.3038 3.12296 12.2638 3.02872C12.2238 2.93448 12.2031 2.83314 12.2031 2.73075C12.2031 2.62836 12.2238 2.52702 12.2638 2.43278C12.3038 2.33854 12.3625 2.25334 12.4362 2.18226C12.5099 2.11119 12.5971 2.05569 12.6928 2.01909C12.7884 1.98249 12.8904 1.96554 12.9927 1.96925C14.1728 1.96925 15.3414 2.20185 16.4315 2.65377C17.5217 3.10568 18.5121 3.76804 19.3461 4.60297C20.1801 5.4379 20.8413 6.42902 21.292 7.51968C21.7427 8.61034 21.974 9.77914 21.9727 10.9592C21.973 11.0594 21.9535 11.1586 21.9153 11.2512C21.8771 11.3437 21.8209 11.4278 21.7501 11.4987C21.6793 11.5695 21.5952 11.6256 21.5026 11.6638C21.4101 11.702 21.3109 11.7205 21.2107 11.7203Z" fill="black"/>
</svg>
