<svg width="28" height="28" viewBox="0 0 28 28" fill="none" xmlns="http://www.w3.org/2000/svg">
<path d="M13.154 4.30195C13.0488 4.19057 12.9665 4.05955 12.9119 3.91636C12.8573 3.77318 12.8314 3.62064 12.8357 3.46746C12.84 3.31427 12.8745 3.16344 12.9371 3.02357C12.9998 2.8837 13.0893 2.75754 13.2007 2.65229C13.3121 2.54703 13.4431 2.46475 13.5863 2.41013C13.7295 2.35551 13.882 2.32963 14.0352 2.33396C14.1884 2.3383 14.3392 2.37276 14.4791 2.43538C14.619 2.49801 14.7451 2.58757 14.8504 2.69895L24.767 13.199C24.9718 13.4156 25.0859 13.7024 25.0859 14.0005C25.0859 14.2986 24.9718 14.5853 24.767 14.802L14.8504 25.3031C14.7458 25.4169 14.6197 25.5089 14.4793 25.5735C14.3389 25.6382 14.1871 25.6743 14.0326 25.6798C13.8782 25.6853 13.7242 25.66 13.5795 25.6055C13.4349 25.5509 13.3026 25.4682 13.1902 25.3621C13.0778 25.256 12.9877 25.1286 12.9249 24.9874C12.8622 24.8461 12.8282 24.6938 12.8248 24.5393C12.8214 24.3847 12.8488 24.2311 12.9053 24.0872C12.9619 23.9434 13.0464 23.8122 13.154 23.7013L22.3147 14.0005L13.154 4.30195Z" fill="black"/>
</svg>
