<svg width="28" height="28" viewBox="0 0 28 28" fill="none" xmlns="http://www.w3.org/2000/svg">
<path d="M14.846 4.30195C14.9512 4.19057 15.0335 4.05955 15.0881 3.91636C15.1427 3.77318 15.1686 3.62064 15.1643 3.46746C15.16 3.31427 15.1255 3.16344 15.0629 3.02357C15.0002 2.8837 14.9107 2.75754 14.7993 2.65229C14.6879 2.54703 14.5569 2.46475 14.4137 2.41013C14.2705 2.35551 14.118 2.32963 13.9648 2.33396C13.8116 2.3383 13.6608 2.37276 13.5209 2.43538C13.381 2.49801 13.2549 2.58757 13.1496 2.69895L3.23296 13.199C3.02817 13.4156 2.91406 13.7024 2.91406 14.0005C2.91406 14.2986 3.02817 14.5853 3.23296 14.802L13.1496 25.3031C13.2542 25.4169 13.3803 25.5089 13.5207 25.5735C13.6611 25.6382 13.8129 25.6743 13.9674 25.6798C14.1218 25.6853 14.2758 25.66 14.4205 25.6055C14.5651 25.5509 14.6974 25.4682 14.8098 25.3621C14.9222 25.256 15.0123 25.1286 15.0751 24.9874C15.1378 24.8461 15.1718 24.6938 15.1752 24.5393C15.1786 24.3847 15.1512 24.2311 15.0947 24.0872C15.0381 23.9434 14.9536 23.8122 14.846 23.7013L5.6853 14.0005L14.846 4.30195Z" fill="black"/>
</svg>
