<?xml version="1.0" encoding="UTF-8"?>
<svg id="Layer_2" data-name="Layer 2" xmlns="http://www.w3.org/2000/svg" viewBox="0 0 100.28 11.71">
  <defs>
    <style>
      .cls-1 {
        fill: #fff;
      }
    </style>
  </defs>
  <g id="Layer_1-2" data-name="Layer 1">
    <g>
      <g>
        <path class="cls-1" d="M1.49,8.46c0,.06,0,.19,0,.4,0,.2,.01,.43,.02,.67,0,.25,.02,.48,.03,.7,.02,.22,.04,.37,.07,.46,.52,0,1.03,0,1.55-.03,.52-.02,.99-.04,1.41-.06s.89-.05,1.41-.09l.03,.06c-.02,.17-.03,.34-.03,.51,0,.07,0,.14,0,.21,0,.07,.01,.16,.02,.27l-.03,.05c-.12-.02-.27-.03-.43-.04-.17,0-.33,0-.5,0H.82c-.27,0-.54,.02-.81,.05l-.02-.05c.06-.42,.1-.9,.12-1.43,.02-.53,.03-1.09,.03-1.67v-3.79c0-.58-.01-1.13-.03-1.65s-.06-1-.12-1.45l.03-.05c.27,.03,.53,.05,.79,.05H4.89c.17,0,.33,0,.5-.02,.17,0,.31-.02,.43-.03l.03,.05c-.01,.1-.02,.21-.02,.33,0,.11,0,.2,0,.26,0,.07,0,.14,0,.21,0,.07,.01,.13,.02,.19l-.03,.06c-.49-.04-.93-.07-1.33-.09-.4-.02-.85-.04-1.35-.06-.5-.02-1.01-.03-1.53-.03-.03,.09-.05,.25-.07,.46-.02,.22-.03,.45-.03,.7,0,.25-.01,.47-.02,.67,0,.2,0,.33,0,.39v1.21c.61,0,1.11,0,1.51-.02,.4-.02,.75-.04,1.05-.06,.3-.03,.6-.05,.9-.07l.05,.05c-.01,.07-.02,.16-.03,.25s-.02,.18-.02,.25,0,.16,.02,.25,.02,.18,.03,.25l-.05,.05c-.35-.04-.75-.07-1.19-.09-.44-.02-.87-.04-1.28-.05-.41-.01-.74-.02-.98-.02v1.81Z"/>
        <path class="cls-1" d="M10.62,11.03c.31,0,.6-.07,.88-.21,.27-.14,.5-.35,.67-.62,.18-.27,.26-.6,.26-.98,0-.44-.08-.8-.24-1.08-.16-.28-.38-.51-.65-.69-.27-.18-.58-.34-.92-.47-.42-.19-.84-.4-1.25-.64-.41-.24-.75-.55-1.01-.92-.26-.37-.4-.83-.4-1.36,0-.57,.17-1.06,.51-1.49,.34-.42,.74-.73,1.19-.93,.23-.09,.45-.16,.68-.2,.23-.04,.44-.06,.65-.06,.61,0,1.09,.06,1.45,.18,.36,.12,.69,.29,1.01,.52l.03,.05c-.07,.23-.14,.47-.21,.74-.07,.26-.12,.53-.15,.81l-.16,.02c-.21-.49-.5-.88-.89-1.18s-.79-.45-1.22-.45c-.18,0-.34,.01-.5,.04-.16,.03-.31,.07-.44,.15-.2,.1-.36,.29-.5,.57-.14,.27-.21,.55-.21,.83,0,.42,.1,.77,.31,1.03,.21,.26,.46,.47,.75,.62,.29,.15,.57,.28,.83,.38,.41,.16,.83,.36,1.26,.61,.43,.25,.79,.58,1.08,.98,.29,.4,.43,.9,.43,1.5s-.15,1.12-.45,1.56c-.3,.44-.7,.79-1.21,1.03s-1.08,.36-1.72,.36c-.6,0-1.11-.06-1.53-.17s-.85-.29-1.29-.53l-.03-.05c.06-.24,.13-.49,.2-.77,.07-.27,.12-.55,.15-.83l.16-.02c.16,.3,.38,.58,.66,.84,.27,.26,.57,.46,.89,.61s.62,.22,.91,.22Z"/>
        <path class="cls-1" d="M18.23,4.67c0-.06,0-.19,0-.39,0-.2-.01-.43-.02-.67,0-.25-.02-.48-.03-.7-.02-.22-.04-.37-.07-.46-1.03,0-2.08,.07-3.13,.22l-.03-.06c.03-.24,.03-.58,0-1.02l.03-.05c.12,0,.27,.02,.43,.03,.17,.01,.33,.02,.5,.02h5.98c.17,0,.33,0,.5-.02,.17,0,.31-.02,.43-.03l.03,.05c-.03,.44-.03,.79,0,1.02l-.03,.06c-1.04-.14-2.09-.22-3.13-.22-.03,.09-.05,.25-.07,.46-.02,.22-.03,.45-.03,.7,0,.25-.01,.47-.02,.67,0,.2,0,.33,0,.39v3.79c0,.58,.01,1.13,.03,1.65,.02,.52,.06,1,.12,1.45l-.03,.05c-.09-.02-.22-.03-.4-.04-.17,0-.3,0-.39,0s-.22,0-.4,0c-.17,0-.3,.02-.4,.04l-.03-.05c.06-.42,.1-.9,.12-1.43,.02-.53,.03-1.09,.03-1.67v-3.79Z"/>
        <path class="cls-1" d="M26.02,8.46c0,.06,0,.19,0,.4,0,.2,.01,.43,.02,.67,0,.25,.02,.48,.03,.7,.02,.22,.04,.37,.07,.46,.52,0,1.03,0,1.55-.03,.52-.02,.99-.04,1.41-.06s.89-.05,1.41-.09l.03,.06c-.02,.17-.03,.34-.03,.51,0,.07,0,.14,0,.21,0,.07,.01,.16,.02,.27l-.03,.05c-.12-.02-.27-.03-.43-.04-.17,0-.33,0-.5,0h-4.23c-.27,0-.54,.02-.81,.05l-.02-.05c.06-.42,.1-.9,.12-1.43,.02-.53,.03-1.09,.03-1.67v-3.79c0-.58-.01-1.13-.03-1.65s-.06-1-.12-1.45l.03-.05c.27,.03,.53,.05,.79,.05h4.07c.17,0,.33,0,.5-.02,.17,0,.31-.02,.43-.03l.03,.05c-.01,.1-.02,.21-.02,.33,0,.11,0,.2,0,.26,0,.07,0,.14,0,.21,0,.07,.01,.13,.02,.19l-.03,.06c-.49-.04-.93-.07-1.33-.09-.4-.02-.85-.04-1.35-.06-.5-.02-1.01-.03-1.53-.03-.03,.09-.05,.25-.07,.46-.02,.22-.03,.45-.03,.7,0,.25-.01,.47-.02,.67,0,.2,0,.33,0,.39v1.21c.61,0,1.11,0,1.51-.02,.4-.02,.75-.04,1.05-.06,.3-.03,.6-.05,.9-.07l.05,.05c-.01,.07-.02,.16-.03,.25s-.02,.18-.02,.25,0,.16,.02,.25,.02,.18,.03,.25l-.05,.05c-.35-.04-.75-.07-1.19-.09-.44-.02-.87-.04-1.28-.05-.41-.01-.74-.02-.98-.02v1.81Z"/>
        <path class="cls-1" d="M34.35,8.46c0,.06,0,.19,0,.4,0,.2,.01,.43,.02,.67,0,.25,.02,.48,.03,.7,.02,.22,.04,.37,.07,.46,.52,0,1.03,0,1.55-.03,.52-.02,.99-.04,1.41-.06s.89-.05,1.41-.09l.03,.06c-.02,.17-.03,.34-.03,.51,0,.07,0,.14,0,.21,0,.07,.01,.16,.02,.27l-.03,.05c-.12-.02-.27-.03-.43-.04-.17,0-.33,0-.5,0h-4.23c-.27,0-.54,.02-.81,.05l-.02-.05c.06-.42,.1-.9,.12-1.43,.02-.53,.03-1.09,.03-1.67v-3.79c0-.58-.01-1.13-.03-1.65s-.06-1-.12-1.45l.03-.05c.27,.03,.53,.05,.79,.05h4.07c.17,0,.33,0,.5-.02,.17,0,.31-.02,.43-.03l.03,.05c-.01,.1-.02,.21-.02,.33,0,.11,0,.2,0,.26,0,.07,0,.14,0,.21,0,.07,.01,.13,.02,.19l-.03,.06c-.49-.04-.93-.07-1.33-.09-.4-.02-.85-.04-1.35-.06-.5-.02-1.01-.03-1.53-.03-.03,.09-.05,.25-.07,.46-.02,.22-.03,.45-.03,.7,0,.25-.01,.47-.02,.67,0,.2,0,.33,0,.39v1.21c.61,0,1.11,0,1.51-.02,.4-.02,.75-.04,1.05-.06,.3-.03,.6-.05,.9-.07l.05,.05c-.01,.07-.02,.16-.03,.25s-.02,.18-.02,.25,0,.16,.02,.25,.02,.18,.03,.25l-.05,.05c-.35-.04-.75-.07-1.19-.09-.44-.02-.87-.04-1.28-.05-.41-.01-.74-.02-.98-.02v1.81Z"/>
        <path class="cls-1" d="M46.57,4.67v3.79c0,.06,0,.19,0,.39,0,.2,.01,.41,.02,.65,0,.24,.02,.46,.03,.67,.02,.21,.04,.36,.07,.45,.52,0,1.03-.02,1.55-.05s.99-.07,1.41-.12c.42-.04,.89-.1,1.41-.17l.03,.06c-.02,.17-.03,.35-.03,.54,0,.07,0,.18,0,.31,0,.13,.01,.26,.02,.37l-.03,.05c-.12-.02-.27-.03-.43-.04-.17,0-.33,0-.5,0h-4.23c-.26,0-.53,.02-.81,.05l-.02-.05c.06-.42,.1-.9,.12-1.43,.02-.53,.03-1.09,.03-1.67v-3.79c0-.58-.01-1.13-.03-1.65-.02-.52-.06-1-.12-1.45l.03-.05c.09,0,.22,.02,.39,.03,.17,.01,.3,.02,.4,.02s.23,0,.4-.02c.18,0,.31-.02,.4-.03l.02,.05c-.06,.41-.1,.89-.12,1.42-.02,.54-.03,1.09-.03,1.67Z"/>
        <path class="cls-1" d="M54.36,8.03c-.28,.67-.53,1.32-.76,1.94-.23,.62-.4,1.17-.53,1.64-.09-.02-.21-.03-.36-.04-.15,0-.26,0-.34,0s-.17,0-.26,0c-.09,0-.19,.02-.28,.04,.78-1.71,1.56-3.42,2.32-5.12,.76-1.7,1.51-3.4,2.25-5.12h.43c.29,.68,.59,1.42,.91,2.21,.32,.79,.64,1.6,.97,2.41s.64,1.58,.94,2.32,.58,1.39,.82,1.97c.24,.58,.44,1.02,.6,1.33-.13-.02-.29-.03-.46-.04-.17,0-.33,0-.46,0s-.26,0-.39,0c-.12,0-.25,.02-.39,.04-.05-.18-.17-.56-.36-1.16s-.47-1.4-.85-2.42c-.19-.02-.46-.03-.82-.04-.36,0-.69,0-.99,0-.17,0-.39,0-.66,0-.26,0-.52,0-.77,.01-.25,0-.44,.01-.57,.02Zm3.53-.74c-.21-.54-.44-1.12-.7-1.76-.26-.63-.55-1.32-.87-2.05h-.03l-1.63,3.81c.11,.01,.27,.02,.46,.02,.2,0,.4,.01,.61,.02s.39,0,.53,0c.23,0,.49,0,.79,0,.3,0,.57-.02,.82-.04Z"/>
        <path class="cls-1" d="M69.75,4.67c0-.58-.01-1.13-.03-1.65s-.06-1-.12-1.45l.03-.05c.19,.03,.37,.05,.54,.05s.36-.02,.54-.05l.03,.05c-.06,.41-.1,.89-.12,1.42-.02,.54-.03,1.09-.03,1.67v2.32c0,.92-.12,1.73-.35,2.45-.23,.71-.64,1.27-1.22,1.67-.58,.4-1.41,.6-2.47,.6-.35,0-.73-.05-1.15-.16s-.81-.29-1.18-.57c-.38-.27-.68-.66-.92-1.16s-.36-1.14-.36-1.93v-3.24c0-.58,0-1.13-.03-1.65-.02-.52-.06-1-.12-1.45l.03-.05c.09,0,.22,.02,.4,.03,.17,.01,.3,.02,.39,.02s.22,0,.4-.02c.17,0,.3-.02,.39-.03l.03,.05c-.06,.41-.1,.89-.12,1.42-.02,.54-.03,1.09-.03,1.67v2.73c0,.17,0,.39,.02,.67s.06,.59,.14,.91c.08,.32,.21,.62,.39,.91,.19,.28,.44,.52,.77,.7,.33,.18,.75,.27,1.27,.27,.65,0,1.17-.1,1.56-.31,.39-.21,.68-.48,.87-.83s.32-.73,.37-1.15c.06-.42,.08-.85,.08-1.29v-2.6Z"/>
        <path class="cls-1" d="M74.32,1.57c.33,0,.63,0,.89,0,.26,0,.52-.01,.78-.02,.26-.01,.55-.02,.88-.02,.74,0,1.44,.14,2.09,.41s1.22,.65,1.7,1.14,.87,1.04,1.15,1.68c.28,.63,.42,1.31,.42,2.04,0,.95-.16,1.74-.48,2.36s-.74,1.12-1.25,1.47c-.51,.36-1.06,.61-1.65,.75-.59,.14-1.16,.22-1.7,.22-.4,0-.73,0-.97,0-.24,0-.45,0-.63,0s-.36,0-.54,0c-.18,0-.41,0-.69,0s-.54,.02-.8,.05l-.02-.05c.06-.42,.1-.9,.12-1.43,.02-.53,.03-1.09,.03-1.67v-3.79c0-.58,0-1.13-.03-1.65-.02-.52-.06-1-.12-1.45l.03-.05c.27,.03,.53,.05,.79,.05Zm.67,8.72c0,.17,.04,.29,.11,.38s.23,.15,.46,.19c.24,.04,.61,.05,1.12,.05,.55,0,1.06-.05,1.54-.15,.48-.1,.9-.28,1.26-.55,.36-.27,.65-.65,.85-1.14,.21-.49,.31-1.13,.31-1.91,0-.6-.07-1.19-.22-1.77-.14-.58-.38-1.11-.7-1.59s-.77-.86-1.33-1.15-1.26-.43-2.1-.43c-.38,0-.69,.04-.94,.11-.24,.07-.36,.24-.36,.51v7.46Z"/>
        <path class="cls-1" d="M85.98,8.46c0,.06,0,.19,0,.4s0,.43,.02,.67c0,.25,.02,.48,.03,.7,.01,.22,.04,.37,.07,.46,.52,0,1.03,0,1.55-.03,.52-.02,.99-.04,1.41-.06,.42-.02,.89-.05,1.41-.09l.03,.06c-.02,.17-.03,.34-.03,.51,0,.07,0,.14,0,.21,0,.07,.01,.16,.02,.27l-.03,.05c-.12-.02-.27-.03-.43-.04-.17,0-.33,0-.5,0h-4.23c-.27,0-.54,.02-.8,.05l-.02-.05c.06-.42,.1-.9,.12-1.43,.02-.53,.03-1.09,.03-1.67v-3.79c0-.58,0-1.13-.03-1.65-.02-.52-.06-1-.12-1.45l.03-.05c.27,.03,.53,.05,.79,.05h4.07c.17,0,.33,0,.5-.02,.17,0,.31-.02,.43-.03l.03,.05c0,.1-.02,.21-.02,.33,0,.11,0,.2,0,.26,0,.07,0,.14,0,.21,0,.07,.01,.13,.02,.19l-.03,.06c-.49-.04-.93-.07-1.33-.09-.4-.02-.85-.04-1.36-.06s-1.01-.03-1.53-.03c-.03,.09-.05,.25-.07,.46-.02,.22-.03,.45-.03,.7,0,.25-.01,.47-.02,.67,0,.2,0,.33,0,.39v1.21c.61,0,1.11,0,1.51-.02s.75-.04,1.05-.06c.3-.03,.6-.05,.9-.07l.05,.05c-.01,.07-.02,.16-.03,.25,0,.09-.01,.18-.01,.25s0,.16,.01,.25c.01,.09,.02,.18,.03,.25l-.05,.05c-.35-.04-.75-.07-1.19-.09-.44-.02-.87-.04-1.28-.05-.41-.01-.74-.02-.98-.02v1.81Z"/>
        <path class="cls-1" d="M94.31,7.13v1.33c0,.58,.01,1.13,.03,1.65s.06,1,.12,1.45l-.03,.05c-.09-.02-.22-.03-.39-.04-.17,0-.3,0-.4,0s-.22,0-.39,0c-.17,0-.3,.02-.4,.04l-.03-.05c.06-.42,.1-.9,.12-1.43,.02-.53,.03-1.09,.03-1.67v-3.79c0-.58,0-1.13-.03-1.65-.02-.52-.06-1-.12-1.45l.03-.05c.09,0,.22,.02,.4,.03,.17,.01,.3,.02,.39,.02,.16,0,.37,0,.66-.03s.56-.04,.84-.05c.27-.02,.47-.02,.6-.02,.33,0,.67,.01,1.02,.04,.35,.03,.69,.09,1.01,.19,.33,.1,.61,.27,.86,.51,.55,.52,.82,1.16,.82,1.94,0,.63-.15,1.15-.46,1.56-.3,.41-.67,.72-1.09,.93-.23,.11-.54,.21-.93,.29,.24,.33,.51,.71,.8,1.15,.3,.43,.6,.88,.91,1.33s.6,.87,.88,1.25,.51,.68,.71,.9l-.03,.05c-.16-.02-.31-.03-.46-.04-.15,0-.31,0-.46,0-.14,0-.3,0-.46,0-.17,0-.32,.02-.46,.04-.05-.18-.16-.42-.33-.74-.17-.32-.35-.66-.56-1.03-.21-.37-.4-.7-.59-1-.2-.32-.38-.63-.57-.92-.18-.29-.38-.57-.6-.83-.43,.03-.91,.05-1.44,.05Zm1.44-5c-.46,0-.8,.02-1,.05-.2,.03-.33,.09-.37,.19-.05,.09-.07,.24-.07,.45v3.7h.9c.51,0,.96-.06,1.38-.19s.75-.36,1-.71,.38-.83,.38-1.46c0-.56-.12-.98-.36-1.28-.24-.29-.53-.49-.87-.6s-.67-.16-.99-.16Z"/>
      </g>
      <rect class="cls-1" x="24.33" width="6.03" height=".5"/>
    </g>
  </g>
</svg>