<svg width="24" height="24" viewBox="0 0 24 24" fill="none" xmlns="http://www.w3.org/2000/svg">
<path d="M12.7273 3.68725C12.8176 3.59178 12.8881 3.47947 12.9349 3.35674C12.9817 3.23401 13.0039 3.10327 13.0002 2.97196C12.9965 2.84066 12.9669 2.71138 12.9133 2.59149C12.8596 2.47161 12.7828 2.36347 12.6873 2.27325C12.5919 2.18303 12.4796 2.1125 12.3568 2.06569C12.2341 2.01887 12.1034 1.99669 11.9721 2.0004C11.8408 2.00411 11.7115 2.03365 11.5916 2.08733C11.4717 2.14101 11.3636 2.21778 11.2733 2.31325L2.77334 11.3132C2.59781 11.4989 2.5 11.7447 2.5 12.0002C2.5 12.2558 2.59781 12.5016 2.77334 12.6872L11.2733 21.6882C11.363 21.7858 11.4711 21.8646 11.5914 21.92C11.7117 21.9754 11.8419 22.0064 11.9743 22.0111C12.1067 22.0158 12.2387 21.9942 12.3626 21.9474C12.4866 21.9007 12.6 21.8298 12.6963 21.7388C12.7927 21.6479 12.8699 21.5387 12.9237 21.4176C12.9775 21.2965 13.0067 21.166 13.0095 21.0335C13.0124 20.9011 12.989 20.7694 12.9405 20.6461C12.8921 20.5228 12.8196 20.4103 12.7273 20.3153L4.87534 12.0002L12.7273 3.68725Z" fill="black"/>
</svg>
