<svg width="24" height="24" viewBox="0 0 24 24" fill="none" xmlns="http://www.w3.org/2000/svg">
<path d="M11.2727 3.68725C11.1824 3.59178 11.1119 3.47947 11.0651 3.35674C11.0183 3.23401 10.9961 3.10327 10.9998 2.97196C11.0035 2.84066 11.0331 2.71138 11.0867 2.59149C11.1404 2.47161 11.2172 2.36347 11.3127 2.27325C11.4081 2.18303 11.5204 2.1125 11.6432 2.06569C11.7659 2.01887 11.8966 1.99669 12.0279 2.0004C12.1592 2.00411 12.2885 2.03365 12.4084 2.08733C12.5283 2.14101 12.6364 2.21778 12.7267 2.31325L21.2267 11.3132C21.4022 11.4989 21.5 11.7447 21.5 12.0002C21.5 12.2558 21.4022 12.5016 21.2267 12.6872L12.7267 21.6882C12.637 21.7858 12.5289 21.8646 12.4086 21.92C12.2883 21.9754 12.1581 22.0064 12.0257 22.0111C11.8933 22.0158 11.7613 21.9942 11.6374 21.9474C11.5134 21.9007 11.4 21.8298 11.3037 21.7388C11.2073 21.6479 11.1301 21.5387 11.0763 21.4176C11.0225 21.2965 10.9933 21.166 10.9905 21.0335C10.9876 20.9011 11.011 20.7694 11.0595 20.6461C11.1079 20.5228 11.1804 20.4103 11.2727 20.3153L19.1247 12.0002L11.2727 3.68725Z" fill="black"/>
</svg>
