<svg width="20" height="20" viewBox="0 0 20 20" fill="none" xmlns="http://www.w3.org/2000/svg">
<path d="M9.99902 3.479C10.0555 3.479 10.1205 3.49365 10.1992 3.53857C10.2419 3.56296 10.2784 3.59895 10.3086 3.67139L10.3096 3.67334L11.8721 7.38135L11.9893 7.65869L12.2891 7.68506L16.3076 8.03662C16.4333 8.05513 16.4849 8.0894 16.5029 8.10498C16.5443 8.14119 16.5826 8.19323 16.6123 8.2749C16.6355 8.33863 16.6408 8.39958 16.626 8.46826C16.6169 8.51036 16.5924 8.56228 16.5205 8.62646L13.4639 11.2671L13.2354 11.4644L13.3037 11.7593L14.2207 15.6968C14.2405 15.7834 14.2289 15.8293 14.2148 15.8589C14.1783 15.9357 14.1297 15.9941 14.0684 16.0415C14.0238 16.076 13.9705 16.0993 13.8936 16.106C13.8463 16.11 13.7955 16.1015 13.7275 16.0581L13.7158 16.0503L10.2568 13.9673L9.99902 13.812L9.74121 13.9673L6.2832 16.0503L6.27246 16.0571C6.20388 16.1008 6.15202 16.11 6.10352 16.106C6.02789 16.0997 5.97565 16.0767 5.93164 16.0425C5.86924 15.9939 5.82076 15.9345 5.78418 15.8579C5.77068 15.8296 5.75839 15.7845 5.77832 15.6968L6.69434 11.7593L6.7627 11.4644L6.53418 11.2671L3.47754 8.62646C3.40697 8.56238 3.38322 8.50985 3.37402 8.46729C3.35909 8.3979 3.36302 8.33689 3.38574 8.27393C3.41466 8.1939 3.45277 8.14207 3.49512 8.10498C3.51319 8.08915 3.56379 8.05583 3.68555 8.0376L7.70996 7.68506L8.00977 7.65869L8.12695 7.38135L9.68945 3.67334L9.69043 3.67139C9.72066 3.59889 9.75706 3.56296 9.7998 3.53857C9.87839 3.49377 9.94266 3.47905 9.99902 3.479Z" stroke="white"/>
</svg>
