<svg width="20" height="20" viewBox="0 0 20 20" fill="none" xmlns="http://www.w3.org/2000/svg">
<path d="M9.9993 14.3957L6.54096 16.479C6.38819 16.5762 6.22846 16.6179 6.0618 16.604C5.89513 16.5901 5.7493 16.5346 5.6243 16.4373C5.4993 16.3401 5.40208 16.2187 5.33263 16.0732C5.26319 15.9276 5.2493 15.7643 5.29096 15.5832L6.20763 11.6457L3.14513 8.99984C3.00624 8.87484 2.91958 8.73234 2.88513 8.57234C2.85069 8.41234 2.86096 8.25623 2.91596 8.104C2.97096 7.95178 3.0543 7.82678 3.16596 7.729C3.27763 7.63123 3.43041 7.56873 3.6243 7.5415L7.66596 7.18734L9.22846 3.479C9.29791 3.31234 9.40569 3.18734 9.5518 3.104C9.69791 3.02067 9.84708 2.979 9.9993 2.979C10.1515 2.979 10.3007 3.02067 10.4468 3.104C10.5929 3.18734 10.7007 3.31234 10.7701 3.479L12.3326 7.18734L16.3743 7.5415C16.5687 7.56928 16.7215 7.63178 16.8326 7.729C16.9437 7.82623 17.0271 7.95123 17.0826 8.104C17.1382 8.25678 17.1487 8.41317 17.1143 8.57317C17.0799 8.73317 16.9929 8.87539 16.8535 8.99984L13.791 11.6457L14.7076 15.5832C14.7493 15.7637 14.7354 15.9271 14.666 16.0732C14.5965 16.2193 14.4993 16.3407 14.3743 16.4373C14.2493 16.534 14.1035 16.5896 13.9368 16.604C13.7701 16.6184 13.6104 16.5768 13.4576 16.479L9.9993 14.3957Z" fill="white"/>
</svg>
