<svg width="30" height="30" viewBox="0 0 30 30" fill="none" xmlns="http://www.w3.org/2000/svg">
<path d="M20.8701 4.75C23.9502 4.75007 26.5 7.33207 26.5 10.6016C26.4999 14.007 24.7862 16.9794 21.6094 19.9639C20.1182 21.3653 18.3354 22.7254 16.9121 23.7422C16.2033 24.2486 15.5894 24.6659 15.1533 24.9561C15.0983 24.9927 15.0453 25.0261 14.9961 25.0586C14.9419 25.0233 14.8835 24.9865 14.8223 24.9463C14.3757 24.6528 13.749 24.2313 13.0322 23.7227C11.5915 22.7003 9.81584 21.3454 8.40234 19.9746C5.5409 17.1997 3.50013 13.9794 3.5 10.6016C3.5 7.34224 6.05085 4.75007 9.12988 4.75C11.2784 4.75 13.1561 6.00738 14.1084 7.88184L15 9.63672L15.8916 7.88184C16.8439 6.00738 18.7216 4.75 20.8701 4.75Z" stroke="#FF0000" stroke-width="2"/>
</svg>
