<svg width="20" height="20" viewBox="0 0 20 20" fill="none" xmlns="http://www.w3.org/2000/svg">
<rect width="20" height="20" fill="white"/>
<path d="M10.0013 14.3952L6.54292 16.4785C6.39014 16.5757 6.23042 16.6174 6.06375 16.6035C5.89708 16.5896 5.75125 16.5341 5.62625 16.4368C5.50125 16.3396 5.40403 16.2182 5.33458 16.0727C5.26514 15.9271 5.25125 15.7638 5.29292 15.5827L6.20958 11.6452L3.14708 8.99935C3.0082 8.87435 2.92153 8.73185 2.88708 8.57185C2.85264 8.41185 2.86292 8.25574 2.91792 8.10352C2.97292 7.95129 3.05625 7.82629 3.16792 7.72852C3.27958 7.63074 3.43236 7.56824 3.62625 7.54102L7.66792 7.18685L9.23042 3.47852C9.29986 3.31185 9.40764 3.18685 9.55375 3.10352C9.69986 3.02018 9.84903 2.97852 10.0013 2.97852C10.1535 2.97852 10.3026 3.02018 10.4488 3.10352C10.5949 3.18685 10.7026 3.31185 10.7721 3.47852L12.3346 7.18685L16.3762 7.54102C16.5707 7.56879 16.7235 7.63129 16.8346 7.72852C16.9457 7.82574 17.029 7.95074 17.0846 8.10352C17.1401 8.25629 17.1507 8.41268 17.1163 8.57268C17.0818 8.73268 16.9949 8.87491 16.8554 8.99935L13.7929 11.6452L14.7096 15.5827C14.7513 15.7632 14.7374 15.9266 14.6679 16.0727C14.5985 16.2188 14.5013 16.3402 14.3763 16.4368C14.2513 16.5335 14.1054 16.5891 13.9388 16.6035C13.7721 16.618 13.6124 16.5763 13.4596 16.4785L10.0013 14.3952Z" fill="#FF0000"/>
</svg>
