<svg width="20" height="20" viewBox="0 0 20 20" fill="none" xmlns="http://www.w3.org/2000/svg">
<rect width="20" height="20" fill="white"/>
<path d="M10.001 3.47852C10.0574 3.47852 10.1224 3.49316 10.2012 3.53809C10.2438 3.56248 10.2804 3.59846 10.3105 3.6709L10.3115 3.67285L11.874 7.38086L11.9912 7.6582L12.291 7.68457L16.3096 8.03613C16.4353 8.05464 16.4869 8.08891 16.5049 8.10449C16.5463 8.14071 16.5845 8.19274 16.6143 8.27441C16.6374 8.33814 16.6427 8.39909 16.6279 8.46777C16.6188 8.50987 16.5943 8.56179 16.5225 8.62598L13.4658 11.2666L13.2373 11.4639L13.3057 11.7588L14.2227 15.6963C14.2425 15.783 14.2308 15.8288 14.2168 15.8584C14.1802 15.9353 14.1316 15.9936 14.0703 16.041C14.0258 16.0755 13.9725 16.0988 13.8955 16.1055C13.8483 16.1095 13.7975 16.101 13.7295 16.0576L13.7178 16.0498L10.2588 13.9668L10.001 13.8115L9.74316 13.9668L6.28516 16.0498L6.27441 16.0566C6.20584 16.1003 6.15397 16.1095 6.10547 16.1055C6.02984 16.0992 5.97761 16.0762 5.93359 16.042C5.87119 15.9935 5.82272 15.934 5.78613 15.8574C5.77263 15.8291 5.76034 15.784 5.78027 15.6963L6.69629 11.7588L6.76465 11.4639L6.53613 11.2666L3.47949 8.62598C3.40892 8.56189 3.38518 8.50936 3.37598 8.4668C3.36104 8.39741 3.36497 8.3364 3.3877 8.27344C3.41661 8.19342 3.45472 8.14158 3.49707 8.10449C3.51515 8.08866 3.56574 8.05534 3.6875 8.03711L7.71191 7.68457L8.01172 7.6582L8.12891 7.38086L9.69141 3.67285L9.69238 3.6709C9.72261 3.5984 9.75901 3.56247 9.80176 3.53809C9.88034 3.49329 9.94461 3.47856 10.001 3.47852Z" stroke="#FF0000"/>
</svg>
